<svg height="512" viewBox="0 0 512 512" width="512" xmlns="http://www.w3.org/2000/svg" xmlns:xlink="http://www.w3.org/1999/xlink"><linearGradient id="a" gradientUnits="userSpaceOnUse" x1="-121.511" x2="368.356" y1="385.511" y2="-104.356" data-name="New Gradient Swatch 1"><stop offset="0" stop-color="#003f8a"/><stop offset=".518" stop-color="#00d7df"/><stop offset="1" stop-color="#006df0"/></linearGradient><linearGradient id="b" x1="-25.511" x2="464.356" xlink:href="#a" y1="481.511" y2="-8.356"/><linearGradient id="c" x1="46.01" x2="535.876" xlink:href="#a" y1="553.032" y2="63.165"/><g><path d="m200 104a40 40 0 1 0 -40 40 40.045 40.045 0 0 0 40-40zm-40 24a24 24 0 1 1 24-24 24.028 24.028 0 0 1 -24 24z" fill="url(#a)"/><path d="m392 104a40 40 0 1 0 -40 40 40.045 40.045 0 0 0 40-40zm-40 24a24 24 0 1 1 24-24 24.028 24.028 0 0 1 -24 24z" fill="url(#b)"/><path d="m503.49 445.19-48-128a8.005 8.005 0 0 0 -7.49-5.19h-48v-32h12a20.02 20.02 0 0 0 20-20v-84a32.036 32.036 0 0 0 -32-32h-96a32.036 32.036 0 0 0 -32 32v84a20.02 20.02 0 0 0 20 20h12v32h-96v-32h12a20.02 20.02 0 0 0 20-20v-84a32.036 32.036 0 0 0 -32-32h-96a32.036 32.036 0 0 0 -32 32v84a20.02 20.02 0 0 0 20 20h12v32h-48a8.005 8.005 0 0 0 -7.49 5.19l-48 128a7.992 7.992 0 0 0 7.49 10.81h480a7.992 7.992 0 0 0 7.49-10.81zm-211.49-181.19a4 4 0 0 1 -4-4v-84a16.021 16.021 0 0 1 16-16h96a16.021 16.021 0 0 1 16 16v84a4 4 0 0 1 -4 4h-12v-72a8 8 0 0 0 -16 0v196a4 4 0 0 1 -4 4h-20v-96a8 8 0 0 0 -16 0v96h-20a4 4 0 0 1 -4-4v-196a8 8 0 0 0 -16 0v72zm-192 0a4 4 0 0 1 -4-4v-84a16.021 16.021 0 0 1 16-16h96a16.021 16.021 0 0 1 16 16v84a4 4 0 0 1 -4 4h-12v-72a8 8 0 0 0 -16 0v196a4 4 0 0 1 -4 4h-20v-96a8 8 0 0 0 -16 0v96h-20a4 4 0 0 1 -4-4v-196a8 8 0 0 0 -16 0v72zm-72.46 176 42-112h42.46v60a20.02 20.02 0 0 0 20 20h56a20.02 20.02 0 0 0 20-20v-60h96v60a20.02 20.02 0 0 0 20 20h56a20.02 20.02 0 0 0 20-20v-60h42.46l42 112z" fill="url(#c)"/></g></svg>